Patient4_TMGait_0pt5_02_left_40_GRF.mot
version=1
nRows=45
nColumns=19
inDegrees=no
endheader
time	F1x	F1y	F1z	M1x	M1y	M1z	F2x	F2y	F2z	M2x	M2y	M2z	EC1x	EC1y	EC1z	EC2x	EC2y	EC2z
51.56	-0.13272	-16.0359	3.3691	2.2849	0.94875	-17.1013	-44.725	772.6855	-76.1556	294.5783	91.4218	781.8726	-0.0592	0.0182	-0.0073	-0.0462	0.0165	0.9585
51.5732	-0.026552	-9.8759	2.1942	1.2535	0.72453	-10.5921	-41.7659	760.7408	-73.0658	289.9943	88.085	767.6457	-0.0592	0.0182	-0.0073	-0.0462	0.0165	0.9585
51.5864	0.056625	-4.6072	1.217	0.35059	0.5249	-5.0121	-38.2604	749.2552	-69.8701	285.6157	84.2397	753.0262	-0.0592	0.0182	-0.0073	-0.0462	0.0165	0.9585
51.5996	0.1059	-0.53548	0.48094	-0.36465	0.36327	-0.67629	-34.3327	739.6606	-66.7359	282.0319	80.0619	739.4189	-0.0592	0.0182	-0.0073	-0.0462	0.0165	0.9585
51.6129	0.13978	2.3298	-0.015016	-0.88372	0.23827	2.3898	-30.0951	733.0868	-63.7712	279.7113	75.7136	727.9623	-0.0592	0.0182	-0.0073	-0.0462	0.0165	0.9585
51.6261	0.14617	4.1512	-0.30549	-1.2272	0.1375	4.3514	-25.619	730.2079	-61.0518	278.9365	71.3286	719.3541	-0.0592	0.0182	-0.0073	-0.0462	0.0165	0.9585
51.6393	0.12405	5.1303	-0.43886	-1.4206	0.048274	5.414	-20.9284	731.1966	-58.6124	279.7844	66.9896	713.8045	-0.0592	0.0182	-0.0073	-0.0462	0.0165	0.9585
51.6525	0.072775	5.4577	-0.46116	-1.4854	-0.039944	5.7763	-16.0317	735.7579	-56.4655	282.139	62.7449	711.0887	-0.0592	0.0182	-0.0073	-0.0462	0.0165	0.9585
51.6657	-0.017727	5.2748	-0.41684	-1.4318	-0.13233	5.5995	-10.9306	743.1702	-54.6029	285.7092	58.6138	710.6069	-0.0592	0.0182	-0.0073	-0.0462	0.0165	0.9585
51.6789	-0.13627	4.6529	-0.32913	-1.2546	-0.23731	4.9483	-5.681	752.3726	-53.0213	290.0565	54.6299	711.4931	-0.0592	0.0182	-0.0073	-0.0462	0.0165	0.9585
51.6921	-0.28462	3.6384	-0.22716	-0.94508	-0.3512	3.8693	-0.40303	762.0229	-51.7137	294.626	50.8382	712.6671	-0.0592	0.0182	-0.0073	-0.0462	0.0165	0.9585
51.7054	-0.44128	2.2172	-0.12681	-0.48491	-0.46359	2.3393	4.7004	770.6433	-50.6712	298.805	47.3094	712.9762	-0.0592	0.0182	-0.0073	-0.0462	0.0165	0.9585
51.7186	-0.57934	0.37957	-0.04906	0.13743	-0.55093	0.34874	9.3956	776.8143	-49.8604	302.0038	44.1039	711.3475	-0.0592	0.0182	-0.0073	-0.0462	0.0165	0.9585
51.7318	-0.65183	-1.8323	-0.013845	0.90938	-0.5727	-2.0618	13.4607	779.37	-49.2353	303.7357	41.2692	706.9307	-0.0592	0.0182	-0.0073	-0.0462	0.0165	0.9585
51.745	-0.55422	-4.2547	-0.037719	1.7708	-0.47378	-4.7211	16.7096	777.5842	-48.7457	303.6894	38.84	699.2482	-0.0592	0.0182	-0.0073	-0.0462	0.0165	0.9585
51.7582	-0.16937	-6.5277	-0.1453	2.5855	-0.18546	-7.2309	19.0615	771.3291	-48.3623	301.7934	36.8407	688.3017	-0.0592	0.0182	-0.0073	-0.0462	0.0165	0.9585
51.7714	0.66264	-8.0072	-0.34198	3.1108	0.35765	-8.9081	20.5154	761.1577	-48.0921	298.2486	35.2949	674.6442	-0.0592	0.0182	-0.0073	-0.0462	0.0165	0.9585
51.7846	2.0923	-7.6717	-0.64723	2.9659	1.2326	-8.6476	21.1766	748.1708	-47.9832	293.476	34.2186	659.243	-0.0592	0.0182	-0.0073	-0.0462	0.0165	0.9585
51.7979	4.2726	-4.0912	-1.055	1.6208	2.4868	-4.9131	21.2353	733.753	-48.0887	288.0122	33.5977	643.2528	-0.0592	0.0182	-0.0073	-0.0462	0.0165	0.9585
51.8111	7.2681	4.575	-1.5547	-1.6029	4.1294	4.2757	20.9459	719.2145	-48.4356	282.3724	33.37	627.7195	-0.0592	0.0182	-0.0073	-0.0462	0.0165	0.9585
51.8243	10.9807	20.4167	-2.0745	-7.4708	6.0481	21.1688	20.5782	705.428	-48.998	276.9113	33.4177	613.2901	-0.0592	0.0182	-0.0073	-0.0462	0.0165	0.9585
51.8375	15.0573	45.4404	-2.5111	-16.7147	7.9952	47.9342	20.3237	692.5731	-49.6825	271.7149	33.5909	600.0388	-0.0592	0.0182	-0.0073	-0.0462	0.0165	0.9585
51.8507	18.7231	80.983	-2.6646	-29.8141	9.4689	86.0437	20.2566	680.0324	-50.3393	266.5582	33.7377	587.39	-0.0592	0.0182	-0.0073	-0.0462	0.0165	0.9585
51.8639	20.7122	126.8136	-2.2603	-46.6674	9.7034	135.2783	20.3024	666.509	-50.7747	260.9522	33.723	574.235	-0.0592	0.0182	-0.0073	-0.0462	0.0165	0.9585
51.8771	19.4814	180.2013	-0.92947	-66.2456	7.7418	192.7596	20.2867	650.3557	-50.7584	254.2767	33.4167	559.1967	-0.0592	0.0182	-0.0073	-0.0462	0.0165	0.9585
51.8904	14.3916	235.4772	1.7712	-86.4338	2.8753	252.4137	20.0477	630.103	-50.0875	245.9875	32.7149	541.0307	-0.0592	0.0182	-0.0073	-0.0462	0.0165	0.9585
51.9036	6.9612	285.718	6.3275	-104.6675	-4.8104	306.7168	19.5343	604.9833	-48.6747	235.8205	31.5725	519.0349	-0.0592	0.0182	-0.0073	-0.0462	0.0165	0.9585
51.9168	-0.96097	327.0257	12.0392	-119.5416	-13.8516	351.2396	18.8613	575.2264	-46.6033	223.8903	30.0205	493.2988	-0.0592	0.0182	-0.0073	-0.0462	0.0165	0.9585
51.93	-8.1747	359.6801	18.0569	-131.1921	-22.8965	386.1305	18.2289	541.7541	-44.1429	210.5611	28.1977	464.4837	-0.0592	0.0182	-0.0073	-0.0462	0.0165	0.9585
51.9432	-14.1498	385.9806	23.4839	-140.5103	-30.8086	413.911	17.8204	505.5903	-41.5897	196.2305	26.2669	433.361	-0.0592	0.0182	-0.0073	-0.0462	0.0165	0.9585
51.9564	-18.8371	408.4069	27.8452	-148.4314	-37.0729	437.305	17.705	467.5974	-39.0399	181.2367	24.2722	400.6161	-0.0592	0.0182	-0.0073	-0.0462	0.0165	0.9585
51.9696	-22.4533	428.6902	30.8451	-155.605	-41.4775	458.2136	17.8246	428.4855	-36.4411	165.8593	22.1838	366.8643	-0.0592	0.0182	-0.0073	-0.0462	0.0165	0.9585
51.9829	-25.1574	447.957	32.6351	-162.4327	-44.2541	477.8689	18.0301	388.8221	-33.6957	150.3231	19.9689	332.6135	-0.0592	0.0182	-0.0073	-0.0462	0.0165	0.9585
51.9961	-27.0208	467.1922	33.5473	-169.2466	-45.7952	497.2784	18.0962	349.1194	-30.7813	134.8205	17.6813	298.3467	-0.0592	0.0182	-0.0073	-0.0462	0.0165	0.9585
52.0093	-28.1934	487.2305	34.18	-176.3049	-46.7727	517.3235	17.8237	309.8553	-27.7516	119.5284	15.4322	264.5006	-0.0592	0.0182	-0.0073	-0.0462	0.0165	0.9585
52.0225	-28.8773	508.4872	35.0457	-183.734	-47.7901	538.3811	17.0297	271.5623	-24.7156	104.641	13.3744	231.5656	-0.0592	0.0182	-0.0073	-0.0462	0.0165	0.9585
52.0357	-29.3565	531.261	36.5911	-191.6217	-49.4022	560.7434	15.6251	234.8464	-21.7967	90.3825	11.6408	200.0707	-0.0592	0.0182	-0.0073	-0.0462	0.0165	0.9585
52.0489	-29.764	555.9027	38.8339	-200.1127	-51.6832	584.6696	13.6346	200.3773	-19.0848	77.0055	10.2954	170.582	-0.0592	0.0182	-0.0073	-0.0462	0.0165	0.9585
52.0621	-30.1726	582.6446	41.5921	-209.3235	-54.4752	610.3282	11.1893	168.7812	-16.63	64.7477	9.3249	143.6243	-0.0592	0.0182	-0.0073	-0.0462	0.0165	0.9585
52.0754	-30.542	611.2671	44.5106	-219.2183	-57.4024	637.4165	8.5416	140.4344	-14.4504	53.7578	8.6479	119.4716	-0.0592	0.0182	-0.0073	-0.0462	0.0165	0.9585
52.0886	-30.7458	641.0171	47.4345	-229.5539	-60.2567	665.1116	5.8731	115.4348	-12.5241	44.0756	8.1681	98.1899	-0.0592	0.0182	-0.0073	-0.0462	0.0165	0.9585
52.1018	-30.6931	670.7354	50.2114	-239.9292	-62.8444	692.2158	3.34	93.6159	-10.8093	35.642	7.789	79.6117	-0.0592	0.0182	-0.0073	-0.0462	0.0165	0.9585
52.115	-30.2399	699.1213	52.8442	-249.8771	-65.114	717.4193	1.0373	74.6692	-9.2434	28.3404	7.4221	63.4754	-0.0592	0.0182	-0.0073	-0.0462	0.0165	0.9585
52.1282	-29.3122	724.9887	55.229	-258.9636	-66.9334	739.6054	-0.95598	58.2522	-7.7636	22.0392	6.9853	49.5023	-0.0592	0.0182	-0.0073	-0.0462	0.0165	0.9585
52.1414	-27.8576	747.3633	57.3579	-266.8221	-68.2721	757.9042	-2.5307	44.0574	-6.3279	16.6203	6.4048	37.4374	-0.0592	0.0182	-0.0073	-0.0462	0.0165	0.9585
